<?xml version="1.0" encoding="UTF-8" standalone="no"?>
<svg
   xmlns:dc="http://purl.org/dc/elements/1.1/"
   xmlns:cc="http://creativecommons.org/ns#"
   xmlns:rdf="http://www.w3.org/1999/02/22-rdf-syntax-ns#"
   xmlns:svg="http://www.w3.org/2000/svg"
   xmlns="http://www.w3.org/2000/svg"
   xmlns:sodipodi="http://sodipodi.sourceforge.net/DTD/sodipodi-0.dtd"
   xmlns:inkscape="http://www.inkscape.org/namespaces/inkscape"
   version="1.1"
   viewBox="0 0 24 24"
   id="svg16"
   sodipodi:docname="born2.svg"
   inkscape:version="0.92.3 (2405546, 2018-03-11)">
  <metadata
     id="metadata22">
    <rdf:RDF>
      <cc:Work
         rdf:about="">
        <dc:format>image/svg+xml</dc:format>
        <dc:type
           rdf:resource="http://purl.org/dc/dcmitype/StillImage" />
      </cc:Work>
    </rdf:RDF>
  </metadata>
  <defs
     id="defs20" />
  <sodipodi:namedview
     pagecolor="#ffffff"
     bordercolor="#666666"
     borderopacity="1"
     objecttolerance="10"
     gridtolerance="10"
     guidetolerance="10"
     inkscape:pageopacity="0"
     inkscape:pageshadow="2"
     inkscape:window-width="1366"
     inkscape:window-height="744"
     id="namedview18"
     showgrid="false"
     inkscape:zoom="9.8333333"
     inkscape:cx="12"
     inkscape:cy="12"
     inkscape:window-x="0"
     inkscape:window-y="312"
     inkscape:window-maximized="1"
     inkscape:current-layer="g12" />
  <!--Generated by IJSVG (https://github.com/iconjar/IJSVG)-->
  <g
     stroke-linecap="round"
     stroke-width="1.5"
     stroke="#323232"
     fill="none"
     stroke-linejoin="round"
     id="g12">
    <path
       d="M10.091,8.15901c0.87868,0.87868 0.87868,2.3033 0,3.18198c-0.87868,0.87868 -2.3033,0.87868 -3.18198,0c-0.87868,-0.87868 -0.87868,-2.3033 0,-3.18198c0.87868,-0.87868 2.3033,-0.87868 3.18198,0"
       id="path2"
       style="stroke:#dfdd59;stroke-opacity:1" />
    <path
       d="M2,18.5v-12.959c0,-1.127 0.914,-2.041 2.041,-2.041h15.959c1.105,0 2,0.895 2,2v13c0,1.105 -0.895,2 -2,2h-16c-1.105,0 -2,-0.895 -2,-2Z"
       id="path4"
       style="stroke:#dfdd59;stroke-opacity:1" />
    <path
       d="M15,9.5h4"
       id="path6"
       style="stroke:#dfdd59;stroke-opacity:1" />
    <path
       d="M17.4,13.5h-2.4"
       id="path8"
       style="stroke:#dfdd59;stroke-opacity:1" />
    <path
       d="M12.095,16.5c-0.175,-0.439 -0.445,-0.833 -0.792,-1.154v0c-0.587,-0.544 -1.357,-0.846 -2.157,-0.846h-1.292c-0.8,0 -1.57,0.302 -2.157,0.846v0c-0.347,0.321 -0.617,0.715 -0.792,1.154"
       id="path10"
       style="stroke:#dfdd59;stroke-opacity:1" />
  </g>
  <path
     fill="none"
     d="M0,0h24v24h-24Z"
     id="path14" />
</svg>
