<?xml version="1.0" encoding="UTF-8" standalone="no"?>
<svg
   xmlns:dc="http://purl.org/dc/elements/1.1/"
   xmlns:cc="http://creativecommons.org/ns#"
   xmlns:rdf="http://www.w3.org/1999/02/22-rdf-syntax-ns#"
   xmlns:svg="http://www.w3.org/2000/svg"
   xmlns="http://www.w3.org/2000/svg"
   xmlns:sodipodi="http://sodipodi.sourceforge.net/DTD/sodipodi-0.dtd"
   xmlns:inkscape="http://www.inkscape.org/namespaces/inkscape"
   version="1.1"
   viewBox="0 0 24 24"
   id="svg18"
   sodipodi:docname="followers2.svg"
   inkscape:version="0.92.3 (2405546, 2018-03-11)">
  <metadata
     id="metadata24">
    <rdf:RDF>
      <cc:Work
         rdf:about="">
        <dc:format>image/svg+xml</dc:format>
        <dc:type
           rdf:resource="http://purl.org/dc/dcmitype/StillImage" />
      </cc:Work>
    </rdf:RDF>
  </metadata>
  <defs
     id="defs22" />
  <sodipodi:namedview
     pagecolor="#ffffff"
     bordercolor="#666666"
     borderopacity="1"
     objecttolerance="10"
     gridtolerance="10"
     guidetolerance="10"
     inkscape:pageopacity="0"
     inkscape:pageshadow="2"
     inkscape:window-width="1366"
     inkscape:window-height="744"
     id="namedview20"
     showgrid="false"
     inkscape:zoom="9.8333333"
     inkscape:cx="12"
     inkscape:cy="12"
     inkscape:window-x="0"
     inkscape:window-y="312"
     inkscape:window-maximized="1"
     inkscape:current-layer="svg18" />
  <!--Generated by IJSVG (https://github.com/iconjar/IJSVG)-->
  <g
     stroke-linecap="round"
     stroke-width="1.5"
     stroke="#323232"
     fill="none"
     stroke-linejoin="round"
     id="g14"
     style="stroke:#dfdd59;stroke-opacity:1">
    <path
       d="M16,19v1c0,0.552 -0.448,1 -1,1h-12c-0.552,0 -1,-0.448 -1,-1v-1v-0.016c0,-3.026 3.458,-4.992 7,-4.992c3.542,0 7,1.967 7,4.992"
       id="path2"
       style="stroke:#dfdd59;stroke-opacity:1" />
    <path
       d="M11.4692,5.02278c1.36371,1.36371 1.36371,3.57472 0,4.93843c-1.36371,1.36371 -3.57472,1.36371 -4.93843,1.77636e-15c-1.36371,-1.36371 -1.36371,-3.57472 -8.88178e-16,-4.93843c1.36371,-1.36371 3.57472,-1.36371 4.93843,-8.88178e-16"
       id="path4"
       style="stroke:#dfdd59;stroke-opacity:1" />
    <path
       d="M20.203,5.152c0.846,0 1.414,0.745 1.414,1.439c0,1.408 -2.357,2.561 -2.4,2.561"
       id="path6"
       style="stroke:#dfdd59;stroke-opacity:1" />
    <path
       d="M18.232,5.152c-0.846,0 -1.414,0.745 -1.414,1.439c0,1.408 2.357,2.561 2.4,2.561"
       id="path8"
       style="stroke:#dfdd59;stroke-opacity:1" />
    <path
       d="M19.218,5.58c0.184,-0.201 0.502,-0.428 0.986,-0.428"
       id="path10"
       style="stroke:#dfdd59;stroke-opacity:1" />
    <path
       d="M19.218,5.58c-0.184,-0.201 -0.502,-0.428 -0.986,-0.428"
       id="path12"
       style="stroke:#dfdd59;stroke-opacity:1" />
  </g>
  <path
     fill="none"
     d="M0,0h24v24h-24Z"
     id="path16" />
</svg>
