<?xml version="1.0" encoding="UTF-8" standalone="no"?>
<svg
   xmlns:dc="http://purl.org/dc/elements/1.1/"
   xmlns:cc="http://creativecommons.org/ns#"
   xmlns:rdf="http://www.w3.org/1999/02/22-rdf-syntax-ns#"
   xmlns:svg="http://www.w3.org/2000/svg"
   xmlns="http://www.w3.org/2000/svg"
   xmlns:sodipodi="http://sodipodi.sourceforge.net/DTD/sodipodi-0.dtd"
   xmlns:inkscape="http://www.inkscape.org/namespaces/inkscape"
   version="1.1"
   viewBox="0 0 24 24"
   id="svg10"
   sodipodi:docname="home2.svg"
   inkscape:version="0.92.3 (2405546, 2018-03-11)">
  <metadata
     id="metadata16">
    <rdf:RDF>
      <cc:Work
         rdf:about="">
        <dc:format>image/svg+xml</dc:format>
        <dc:type
           rdf:resource="http://purl.org/dc/dcmitype/StillImage" />
      </cc:Work>
    </rdf:RDF>
  </metadata>
  <defs
     id="defs14" />
  <sodipodi:namedview
     pagecolor="#ffffff"
     bordercolor="#666666"
     borderopacity="1"
     objecttolerance="10"
     gridtolerance="10"
     guidetolerance="10"
     inkscape:pageopacity="0"
     inkscape:pageshadow="2"
     inkscape:window-width="1366"
     inkscape:window-height="744"
     id="namedview12"
     showgrid="false"
     inkscape:zoom="9.8333333"
     inkscape:cx="0.71186441"
     inkscape:cy="12"
     inkscape:window-x="0"
     inkscape:window-y="312"
     inkscape:window-maximized="1"
     inkscape:current-layer="g8" />
  <!--Generated by IJSVG (https://github.com/iconjar/IJSVG)-->
  <g
     fill="none"
     id="g8">
    <path
       d="M0,0h24v24h-24v-24Z"
       id="path2" />
    <path
       stroke="#323232"
       stroke-width="1.5"
       d="M19.842,8.299l-6,-4.667c-1.083,-0.843 -2.6,-0.843 -3.684,0l-6,4.667c-0.731,0.568 -1.158,1.442 -1.158,2.368v7.333c0,1.657 1.343,3 3,3h12c1.657,0 3,-1.343 3,-3v-7.333c0,-0.926 -0.427,-1.8 -1.158,-2.368Z"
       id="path4"
       style="stroke:#dfdd59;stroke-opacity:1" />
    <path
       stroke="#323232"
       stroke-linecap="round"
       stroke-linejoin="round"
       stroke-width="1.5"
       d="M14.121,11.379c1.172,1.172 1.172,3.071 0,4.243c-1.172,1.172 -3.071,1.172 -4.243,0c-1.172,-1.172 -1.172,-3.071 0,-4.243c1.172,-1.172 3.072,-1.172 4.243,0"
       id="path6"
       style="stroke:#dfdd59;stroke-opacity:1" />
  </g>
</svg>
