<?xml version="1.0" encoding="UTF-8" standalone="no"?>
<svg
   xmlns:dc="http://purl.org/dc/elements/1.1/"
   xmlns:cc="http://creativecommons.org/ns#"
   xmlns:rdf="http://www.w3.org/1999/02/22-rdf-syntax-ns#"
   xmlns:svg="http://www.w3.org/2000/svg"
   xmlns="http://www.w3.org/2000/svg"
   xmlns:sodipodi="http://sodipodi.sourceforge.net/DTD/sodipodi-0.dtd"
   xmlns:inkscape="http://www.inkscape.org/namespaces/inkscape"
   version="1.1"
   viewBox="0 0 24 24"
   id="svg14"
   sodipodi:docname="images2.svg"
   inkscape:version="0.92.3 (2405546, 2018-03-11)">
  <metadata
     id="metadata20">
    <rdf:RDF>
      <cc:Work
         rdf:about="">
        <dc:format>image/svg+xml</dc:format>
        <dc:type
           rdf:resource="http://purl.org/dc/dcmitype/StillImage" />
      </cc:Work>
    </rdf:RDF>
  </metadata>
  <defs
     id="defs18" />
  <sodipodi:namedview
     pagecolor="#ffffff"
     bordercolor="#666666"
     borderopacity="1"
     objecttolerance="10"
     gridtolerance="10"
     guidetolerance="10"
     inkscape:pageopacity="0"
     inkscape:pageshadow="2"
     inkscape:window-width="1366"
     inkscape:window-height="744"
     id="namedview16"
     showgrid="false"
     inkscape:zoom="9.8333333"
     inkscape:cx="0.71186441"
     inkscape:cy="12"
     inkscape:window-x="0"
     inkscape:window-y="312"
     inkscape:window-maximized="1"
     inkscape:current-layer="svg14" />
  <!--Generated by IJSVG (https://github.com/iconjar/IJSVG)-->
  <g
     stroke-linecap="round"
     stroke-width="1.5"
     stroke="#323232"
     fill="none"
     stroke-linejoin="round"
     id="g10"
     style="stroke:#dfdd59;stroke-opacity:1">
    <path
       d="M20,18h-13c-1.105,0 -2,-0.895 -2,-2v-11c0,-1.105 0.895,-2 2,-2h13c1.105,0 2,0.895 2,2v11c0,1.105 -0.895,2 -2,2Z"
       id="path2"
       style="stroke:#dfdd59;stroke-opacity:1" />
    <path
       d="M15.996,21h-11.996c-1.105,0 -2,-0.895 -2,-2v-10.601"
       id="path4"
       style="stroke:#dfdd59;stroke-opacity:1" />
    <path
       d="M11.3457,6.82125c0.651004,0.651004 0.651004,1.70649 0,2.35749c-0.651004,0.651004 -1.70649,0.651004 -2.35749,1.77636e-15c-0.651004,-0.651004 -0.651004,-1.70649 -1.77636e-15,-2.35749c0.651004,-0.651004 1.70649,-0.651004 2.35749,-8.88178e-16"
       id="path6"
       style="stroke:#dfdd59;stroke-opacity:1" />
    <path
       d="M22,13.833l-3.386,-2.709c-0.431,-0.345 -1.061,-0.275 -1.406,0.156l-2.572,3.215c-0.345,0.431 -0.974,0.501 -1.406,0.156l-1.299,-1.039c-0.425,-0.34 -1.044,-0.278 -1.393,0.141l-3.538,4.247"
       id="path8"
       style="stroke:#dfdd59;stroke-opacity:1" />
  </g>
  <path
     fill="none"
     d="M0,0h24v24h-24Z"
     id="path12" />
</svg>
