<?xml version="1.0" encoding="UTF-8" standalone="no"?>
<svg
   xmlns:dc="http://purl.org/dc/elements/1.1/"
   xmlns:cc="http://creativecommons.org/ns#"
   xmlns:rdf="http://www.w3.org/1999/02/22-rdf-syntax-ns#"
   xmlns:svg="http://www.w3.org/2000/svg"
   xmlns="http://www.w3.org/2000/svg"
   xmlns:sodipodi="http://sodipodi.sourceforge.net/DTD/sodipodi-0.dtd"
   xmlns:inkscape="http://www.inkscape.org/namespaces/inkscape"
   version="1.1"
   viewBox="0 0 24 24"
   id="svg10"
   sodipodi:docname="message2.svg"
   inkscape:version="0.92.3 (2405546, 2018-03-11)">
  <metadata
     id="metadata16">
    <rdf:RDF>
      <cc:Work
         rdf:about="">
        <dc:format>image/svg+xml</dc:format>
        <dc:type
           rdf:resource="http://purl.org/dc/dcmitype/StillImage" />
      </cc:Work>
    </rdf:RDF>
  </metadata>
  <defs
     id="defs14" />
  <sodipodi:namedview
     pagecolor="#ffffff"
     bordercolor="#666666"
     borderopacity="1"
     objecttolerance="10"
     gridtolerance="10"
     guidetolerance="10"
     inkscape:pageopacity="0"
     inkscape:pageshadow="2"
     inkscape:window-width="1366"
     inkscape:window-height="744"
     id="namedview12"
     showgrid="false"
     inkscape:zoom="9.8333333"
     inkscape:cx="12"
     inkscape:cy="12"
     inkscape:window-x="0"
     inkscape:window-y="312"
     inkscape:window-maximized="1"
     inkscape:current-layer="svg10" />
  <g
     stroke-linecap="round"
     stroke-width="1.5"
     stroke="#323232"
     fill="none"
     stroke-linejoin="round"
     id="g6"
     style="stroke:#dfdd59;stroke-opacity:1">
    <path
       d="M15.374 12.718l4.506-3.055c.701-.474 1.12-1.265 1.12-2.111v0c0-1.41-1.142-2.552-2.551-2.552h-12.883c-1.409 0-2.551 1.142-2.551 2.551v0c0 .846.419 1.637 1.12 2.112l4.506 3.055c2.033 1.378 4.7 1.378 6.733-1.77636e-15Z"
       id="path2"
       style="stroke:#dfdd59;stroke-opacity:1" />
    <path
       d="M3 7.551v9.449c0 1.657 1.343 3 3 3h12c1.657 0 3-1.343 3-3v-9.448"
       id="path4"
       style="stroke:#dfdd59;stroke-opacity:1" />
  </g>
  <path
     fill="none"
     d="M0 0h24v24h-24v-24Z"
     id="path8" />
</svg>
