<?xml version="1.0" encoding="UTF-8" standalone="no"?>
<svg
   xmlns:dc="http://purl.org/dc/elements/1.1/"
   xmlns:cc="http://creativecommons.org/ns#"
   xmlns:rdf="http://www.w3.org/1999/02/22-rdf-syntax-ns#"
   xmlns:svg="http://www.w3.org/2000/svg"
   xmlns="http://www.w3.org/2000/svg"
   xmlns:sodipodi="http://sodipodi.sourceforge.net/DTD/sodipodi-0.dtd"
   xmlns:inkscape="http://www.inkscape.org/namespaces/inkscape"
   width="16px"
   height="20px"
   viewBox="0 0 16 20"
   version="1.1"
   id="svg15"
   sodipodi:docname="notification.svg"
   inkscape:version="0.92.3 (2405546, 2018-03-11)">
  <metadata
     id="metadata19">
    <rdf:RDF>
      <cc:Work
         rdf:about="">
        <dc:format>image/svg+xml</dc:format>
        <dc:type
           rdf:resource="http://purl.org/dc/dcmitype/StillImage" />
      </cc:Work>
    </rdf:RDF>
  </metadata>
  <sodipodi:namedview
     pagecolor="#ffffff"
     bordercolor="#666666"
     borderopacity="1"
     objecttolerance="10"
     gridtolerance="10"
     guidetolerance="10"
     inkscape:pageopacity="0"
     inkscape:pageshadow="2"
     inkscape:window-width="1366"
     inkscape:window-height="744"
     id="namedview17"
     showgrid="false"
     inkscape:zoom="11.8"
     inkscape:cx="-17.932203"
     inkscape:cy="10"
     inkscape:window-x="0"
     inkscape:window-y="312"
     inkscape:window-maximized="1"
     inkscape:current-layer="ic_notifications_none_24px" />
  <!-- Generator: Sketch 50.2 (55047) - http://www.bohemiancoding.com/sketch -->
  <title
     id="title2">Shape</title>
  <desc
     id="desc4">Created with Sketch.</desc>
  <defs
     id="defs6" />
  <g
     id="Page-1"
     stroke="none"
     stroke-width="1"
     fill="none"
     fill-rule="evenodd">
    <g
       id="TWITTER-PROFILE-2018"
       transform="translate(-220.000000, -13.000000)"
       fill="#667580"
       fill-rule="nonzero">
      <g
         id="Header">
        <g
           id="Left-side"
           transform="translate(128.000000, 8.000000)">
          <g
             id="Notifications"
             transform="translate(92.000000, 0.000000)">
            <g
               id="ic_notifications_none_24px"
               transform="translate(0.000000, 5.000000)">
              <path
                 d="m 8.1694915,19.576272 c 0.027424,0 0.054723,-5.59e-4 0.081888,-0.0017 0.5492534,-0.0224 0.9585051,-0.09957 1.3075815,-0.480835 0.3261467,-0.356217 0.695277,-1.084167 0.695277,-1.602244 l -1.8644075,0.08475 v 0 H 7.8813559 6.1694915 c 0,1.1 0.9,2 2,2 z m 6.0000005,-6 V 8.5762712 c 0,-3.07 -1.63,-5.64 -4.5000005,-6.32 v -0.68 c 0,-0.83000004 -0.67,-1.50000001 -1.5,-1.50000001 -0.83,0 -1.5,0.66999997 -1.5,1.50000001 v 0.68 c -2.86,0.68 -4.5,3.24 -4.5,6.32 v 5.0000008 l -1.99999997,2 v 1 H 16.169492 v -1 z m -2,1 H 4.1694915 V 8.5762712 c 0,-2.48 1.51,-4.5 4,-4.5 2.4900005,0 4.0000005,2.02 4.0000005,4.5 z"
                 id="Shape"
                 style="fill:#dfdd59;fill-opacity:1;stroke:#ffffff;stroke-width:0.80000001;stroke-miterlimit:4;stroke-dasharray:none;stroke-opacity:1;fill-rule:nonzero"
                 inkscape:connector-curvature="0"
                 sodipodi:nodetypes="csscccccscccssscsccccccccssscc" />
            </g>
          </g>
        </g>
      </g>
    </g>
  </g>
</svg>
