<?xml version="1.0" encoding="UTF-8" standalone="no"?>
<svg
   xmlns:dc="http://purl.org/dc/elements/1.1/"
   xmlns:cc="http://creativecommons.org/ns#"
   xmlns:rdf="http://www.w3.org/1999/02/22-rdf-syntax-ns#"
   xmlns:svg="http://www.w3.org/2000/svg"
   xmlns="http://www.w3.org/2000/svg"
   xmlns:sodipodi="http://sodipodi.sourceforge.net/DTD/sodipodi-0.dtd"
   xmlns:inkscape="http://www.inkscape.org/namespaces/inkscape"
   version="1.1"
   viewBox="0 0 24 24"
   id="svg10"
   sodipodi:docname="place2.svg"
   inkscape:version="0.92.3 (2405546, 2018-03-11)">
  <metadata
     id="metadata16">
    <rdf:RDF>
      <cc:Work
         rdf:about="">
        <dc:format>image/svg+xml</dc:format>
        <dc:type
           rdf:resource="http://purl.org/dc/dcmitype/StillImage" />
      </cc:Work>
    </rdf:RDF>
  </metadata>
  <defs
     id="defs14" />
  <sodipodi:namedview
     pagecolor="#ffffff"
     bordercolor="#666666"
     borderopacity="1"
     objecttolerance="10"
     gridtolerance="10"
     guidetolerance="10"
     inkscape:pageopacity="0"
     inkscape:pageshadow="2"
     inkscape:window-width="1366"
     inkscape:window-height="744"
     id="namedview12"
     showgrid="false"
     inkscape:zoom="9.8333333"
     inkscape:cx="12"
     inkscape:cy="12"
     inkscape:window-x="0"
     inkscape:window-y="312"
     inkscape:window-maximized="1"
     inkscape:current-layer="g8" />
  <!--Generated by IJSVG (https://github.com/iconjar/IJSVG)-->
  <g
     fill="none"
     id="g8">
    <path
       d="M0,0h24v24h-24Z"
       id="path2" />
    <path
       stroke="#323232"
       stroke-linecap="round"
       stroke-linejoin="round"
       stroke-width="1.5"
       d="M12,13v0c-1.657,0 -3,-1.343 -3,-3v0c0,-1.657 1.343,-3 3,-3v0c1.657,0 3,1.343 3,3v0c0,1.657 -1.343,3 -3,3Z"
       id="path4"
       style="stroke:#dfdd59;stroke-opacity:1" />
    <path
       d="M12,21c0,0 -7,-5.75 -7,-11c0,-3.866 3.134,-7 7,-7c3.866,0 7,3.134 7,7c0,5.25 -7,11 -7,11Z"
       id="path6"
       stroke-linejoin="round"
       stroke-linecap="round"
       stroke-width="1.5"
       stroke="#323232"
       style="stroke:#dfdd59;stroke-opacity:1" />
  </g>
</svg>
