<?xml version="1.0" encoding="UTF-8" standalone="no"?>
<svg
   xmlns:dc="http://purl.org/dc/elements/1.1/"
   xmlns:cc="http://creativecommons.org/ns#"
   xmlns:rdf="http://www.w3.org/1999/02/22-rdf-syntax-ns#"
   xmlns:svg="http://www.w3.org/2000/svg"
   xmlns="http://www.w3.org/2000/svg"
   xmlns:sodipodi="http://sodipodi.sourceforge.net/DTD/sodipodi-0.dtd"
   xmlns:inkscape="http://www.inkscape.org/namespaces/inkscape"
   version="1.1"
   viewBox="0 0 24 24"
   id="svg18"
   sodipodi:docname="retweet2.svg"
   inkscape:version="0.92.3 (2405546, 2018-03-11)">
  <metadata
     id="metadata24">
    <rdf:RDF>
      <cc:Work
         rdf:about="">
        <dc:format>image/svg+xml</dc:format>
        <dc:type
           rdf:resource="http://purl.org/dc/dcmitype/StillImage" />
      </cc:Work>
    </rdf:RDF>
  </metadata>
  <defs
     id="defs22" />
  <sodipodi:namedview
     pagecolor="#ffffff"
     bordercolor="#666666"
     borderopacity="1"
     objecttolerance="10"
     gridtolerance="10"
     guidetolerance="10"
     inkscape:pageopacity="0"
     inkscape:pageshadow="2"
     inkscape:window-width="1366"
     inkscape:window-height="744"
     id="namedview20"
     showgrid="false"
     inkscape:zoom="9.8333333"
     inkscape:cx="0.71186441"
     inkscape:cy="12"
     inkscape:window-x="0"
     inkscape:window-y="312"
     inkscape:window-maximized="1"
     inkscape:current-layer="svg18" />
  <!--Generated by IJSVG (https://github.com/iconjar/IJSVG)-->
  <g
     stroke-linecap="round"
     stroke-width="1.5"
     stroke="#323232"
     fill="none"
     stroke-linejoin="round"
     id="g12"
     style="stroke:#dfdd59;stroke-opacity:1">
    <path
       d="M12,8.456l-1.181,-1.181l1.181,-1.181"
       id="path2"
       style="stroke:#dfdd59;stroke-opacity:1" />
    <path
       d="M18.364,5.63604c3.51472,3.51472 3.51472,9.2132 0,12.7279c-3.51472,3.51472 -9.2132,3.51472 -12.7279,0c-3.51472,-3.51472 -3.51472,-9.2132 -1.77636e-15,-12.7279c3.51472,-3.51472 9.2132,-3.51472 12.7279,-1.77636e-15"
       id="path4"
       style="stroke:#dfdd59;stroke-opacity:1" />
    <path
       d="M13.051,16.595c-0.339,0.078 -0.688,0.127 -1.051,0.127c-2.608,0 -4.722,-2.114 -4.722,-4.722c0,-1.063 0.364,-2.033 0.956,-2.822"
       id="path6"
       style="stroke:#dfdd59;stroke-opacity:1" />
    <path
       d="M15.766,14.822c0.592,-0.789 0.956,-1.759 0.956,-2.822c0,-2.608 -2.114,-4.722 -4.722,-4.722c-0.363,0 -0.712,0.049 -1.051,0.127"
       id="path8"
       style="stroke:#dfdd59;stroke-opacity:1" />
    <path
       d="M12,15.544l1.181,1.181l-1.181,1.181"
       id="path10"
       style="stroke:#dfdd59;stroke-opacity:1" />
  </g>
  <path
     fill="none"
     d="M24,0v24h-24v-24h24Z"
     id="path14" />
  <path
     d="M0,0h24v24h-24Z"
     fill="none"
     id="path16" />
</svg>
