<?xml version="1.0" encoding="UTF-8" standalone="no"?>
<svg
   xmlns:dc="http://purl.org/dc/elements/1.1/"
   xmlns:cc="http://creativecommons.org/ns#"
   xmlns:rdf="http://www.w3.org/1999/02/22-rdf-syntax-ns#"
   xmlns:svg="http://www.w3.org/2000/svg"
   xmlns="http://www.w3.org/2000/svg"
   xmlns:sodipodi="http://sodipodi.sourceforge.net/DTD/sodipodi-0.dtd"
   xmlns:inkscape="http://www.inkscape.org/namespaces/inkscape"
   version="1.1"
   viewBox="0 0 24 24"
   id="svg12"
   sodipodi:docname="search2.svg"
   inkscape:version="0.92.3 (2405546, 2018-03-11)">
  <metadata
     id="metadata18">
    <rdf:RDF>
      <cc:Work
         rdf:about="">
        <dc:format>image/svg+xml</dc:format>
        <dc:type
           rdf:resource="http://purl.org/dc/dcmitype/StillImage" />
      </cc:Work>
    </rdf:RDF>
  </metadata>
  <defs
     id="defs16" />
  <sodipodi:namedview
     pagecolor="#ffffff"
     bordercolor="#666666"
     borderopacity="1"
     objecttolerance="10"
     gridtolerance="10"
     guidetolerance="10"
     inkscape:pageopacity="0"
     inkscape:pageshadow="2"
     inkscape:window-width="1366"
     inkscape:window-height="744"
     id="namedview14"
     showgrid="false"
     inkscape:zoom="9.8333333"
     inkscape:cx="12"
     inkscape:cy="12"
     inkscape:window-x="0"
     inkscape:window-y="312"
     inkscape:window-maximized="1"
     inkscape:current-layer="g8" />
  <!--Generated by IJSVG (https://github.com/iconjar/IJSVG)-->
  <g
     stroke-linecap="round"
     stroke-width="1.5"
     stroke="#323232"
     fill="none"
     stroke-linejoin="round"
     id="g8">
    <path
       d="m 16.747,6.187 c 0.532563,0.5325625 0.967861,1.1255651 1.305895,1.7569307 1.512841,2.8256223 1.077542,6.4196323 -1.305895,8.8030693 -2.916,2.916 -7.644,2.916 -10.56,0 C 3.271,13.831 3.271,9.103 6.187,6.187 7.8143582,4.5596418 10.006068,3.8404779 12.132223,4.0295084 13.815843,4.1791944 15.458358,4.8983582 16.747,6.187"
       id="path2"
       inkscape:connector-curvature="0"
       sodipodi:nodetypes="csssssc"
       style="fill:none;fill-opacity:1;stroke:#dfdd59;stroke-opacity:1" />
    <path
       d="M 20,20 19.474576,19.474576 18.101695,18.101695 16.75,16.75"
       id="path4"
       inkscape:connector-curvature="0"
       sodipodi:nodetypes="cccc"
       style="fill:#dfdd59;fill-opacity:1;stroke:#dfdd59;stroke-opacity:1" />
    <path
       d="m 11.467,9.785 c 0.23,-0.252 0.627,-0.535 1.232,-0.535 1.058,0 1.768,0.931 1.768,1.798 0,0.728923 -0.389085,1.389308 -0.892927,1.918438 C 12.824742,13.753377 11.821582,14.25 11.467,14.25 c -0.593,0 -3,-1.389 -3,-3.202 0,-0.867 0.71,-1.798 1.768,-1.798 0.605,0 1.002,0.283 1.232,0.535 z"
       id="path6"
       inkscape:connector-curvature="0"
       sodipodi:nodetypes="cssssssc"
       style="fill:none;stroke:#dfdd59;stroke-opacity:1" />
  </g>
  <path
     fill="none"
     d="M0,0h24v24h-24v-24Z"
     id="path10" />
</svg>
